<svg version="1.2" xmlns="http://www.w3.org/2000/svg" viewBox="0 0 48 48" width="200" height="200">
	<style>
		.s0 { fill: #0091ea } 
		.s1 { fill: #00b0ff } 
		.s2 { fill: #40c4ff } 
		.s3 { fill: #ffffff } 
	</style>
	<path class="s0" d="m11.48 46.76h25.04c5.66 0 10.24-4.58 10.24-10.24v-8.73h-45.52v8.73c0 5.66 4.58 10.24 10.24 10.24z"/>
	<path fill-rule="evenodd" class="s1" d="m46.76 13.88v13.91h-45.52v-13.91z"/>
	<path class="s2" d="m36.52 1.24h-25.04c-5.66 0-10.24 4.58-10.24 10.24v2.4h45.52v-2.4c0-5.66-4.58-10.24-10.24-10.24z"/>
	<path class="s3" d="m22.55 17.61l2.2-3.76-2.02-3.45c-0.53-0.9-1.69-1.2-2.6-0.67-0.9 0.53-1.2 1.69-0.67 2.59z"/>
	<path class="s3" d="m27.52 9.73c-0.9-0.53-2.06-0.23-2.59 0.68l-10.93 18.65h4.39l9.81-16.74c0.53-0.9 0.23-2.06-0.68-2.59z"/>
	<path class="s3" d="m37.3 35.28l-9.62-16.42-0.97 1.64c-0.56 1.21-0.63 2.56-0.23 3.81l7.55 12.89c0.36 0.6 0.99 0.94 1.64 0.94q0.5 0 0.96-0.26c0.9-0.53 1.2-1.7 0.67-2.6z"/>
	<path class="s3" d="m25.86 28.96l-0.21-0.37q-0.28-0.43-0.63-0.78h-15.82c-1.04 0-1.89 0.84-1.89 1.87 0 1.04 0.85 1.88 1.89 1.88h16.94c0.25-0.83 0.18-1.75-0.28-2.6z"/>
	<path class="s3" d="m14.72 35.33c-0.62-0.7-1.51-1.18-2.57-1.21q-0.61-0.01-1.18 0.11l-0.62 1.05c-0.53 0.9-0.22 2.07 0.68 2.6q0.46 0.26 0.96 0.26c0.65 0 1.28-0.34 1.63-0.94z"/>
	<path class="s3" d="m31.84 27.81h6.96c1.04 0 1.89 0.84 1.89 1.87 0 1.04-0.85 1.88-1.89 1.88h-6.83c-0.24-0.83-0.37-3.52-0.13-3.75z"/>
</svg>